<?xml version="1.0" standalone="no"?>
<!DOCTYPE svg PUBLIC "-//W3C//DTD SVG 20010904//EN"
 "http://www.w3.org/TR/2001/REC-SVG-20010904/DTD/svg10.dtd">
<svg version="1.0" xmlns="http://www.w3.org/2000/svg"
 width="500.000000pt" height="500.000000pt" viewBox="0 0 500.000000 500.000000"
 preserveAspectRatio="xMidYMid meet">

<g transform="translate(0.000000,500.000000) scale(0.100000,-0.100000)"
fill="#000000" stroke="none">
<path d="M2436 4321 c-3 -5 -10 -42 -16 -82 -16 -114 -46 -196 -78 -211 -19
-9 -28 -22 -30 -43 -5 -41 -30 -67 -61 -63 -24 3 -26 8 -29 55 -2 31 9 102 27
184 35 149 34 151 -39 147 l-45 -3 -22 -84 c-12 -46 -29 -123 -37 -172 -18
-102 -33 -136 -76 -173 -40 -33 -65 -33 -86 -1 -20 30 -15 93 12 180 17 54 17
56 -3 82 -11 15 -51 44 -89 65 -49 27 -72 46 -81 67 -16 39 -46 55 -73 41 -45
-24 -48 -73 -7 -117 19 -21 20 -31 14 -156 -3 -74 -2 -138 3 -143 15 -16 -10
-103 -43 -146 -44 -56 -76 -78 -126 -85 -45 -6 -86 9 -102 38 -7 14 1 23 44
47 101 57 149 140 127 220 -17 63 -82 109 -138 96 -107 -25 -192 -136 -192
-252 0 -157 109 -279 229 -257 96 18 206 113 235 203 22 68 29 142 18 187 -5
22 -7 78 -3 125 l6 84 35 -31 34 -31 -16 -68 c-26 -106 -28 -129 -17 -170 13
-48 34 -73 77 -91 53 -22 127 4 181 62 l42 46 26 -21 c50 -39 160 -18 235 45
24 20 40 25 86 25 41 0 68 7 98 24 l41 23 17 -38 c35 -79 168 -133 273 -111
29 6 70 19 90 28 36 17 163 135 163 152 0 11 119 137 124 131 9 -9 16 -75 9
-84 -5 -6 -38 -32 -75 -58 -84 -59 -118 -107 -118 -164 0 -52 42 -106 97 -124
83 -27 209 8 298 85 36 31 39 36 25 50 -14 15 -19 14 -50 -10 -56 -42 -111
-64 -165 -64 -57 0 -75 12 -75 51 0 31 65 96 128 128 61 31 68 73 27 174 -24
56 -25 66 -14 106 12 41 11 45 -10 63 -30 23 -42 23 -75 -3 -20 -16 -26 -29
-26 -61 0 -39 -6 -47 -94 -135 -52 -51 -96 -100 -98 -110 -6 -32 -94 -76 -159
-81 -70 -5 -109 9 -145 51 -31 37 -30 84 1 79 149 -20 191 -14 246 35 79 72
70 165 -21 211 -137 69 -317 -27 -366 -194 -17 -59 -54 -90 -119 -101 l-37 -6
30 60 c48 95 80 255 58 291 -8 14 -92 16 -100 3z m482 -123 c20 -20 14 -48
-17 -78 -34 -34 -68 -45 -116 -36 -42 8 -43 15 -8 57 50 59 113 85 141 57z
m-1421 -240 c19 -24 22 -61 9 -93 -13 -29 -68 -85 -86 -85 -14 0 -21 67 -11
110 15 66 61 102 88 68z"/>
<path d="M845 3984 c-81 -42 -139 -129 -139 -211 0 -65 39 -126 104 -163 40
-22 61 -25 185 -30 156 -6 192 -18 225 -73 30 -48 26 -99 -10 -141 -57 -65
-127 -60 -202 15 -27 27 -53 49 -57 49 -18 0 -61 -42 -61 -60 0 -27 89 -120
135 -141 22 -10 54 -19 70 -19 40 0 124 41 156 76 110 123 123 237 37 330 -53
58 -98 72 -250 78 -136 5 -170 15 -207 62 -66 84 38 190 122 124 31 -25 49
-25 70 -2 32 36 13 78 -50 111 -31 16 -93 14 -128 -5z"/>
<path d="M402 3440 c-38 -38 -46 -82 -27 -147 31 -104 165 -263 305 -363 80
-57 104 -82 130 -134 28 -59 26 -111 -6 -142 -21 -22 -31 -25 -62 -19 -20 4
-56 15 -79 25 -39 17 -42 21 -53 77 -18 88 -63 174 -124 234 -99 100 -203 128
-266 72 -119 -107 46 -317 375 -478 95 -47 123 -69 149 -119 11 -22 12 -33 4
-43 -15 -19 -37 -16 -143 18 -52 16 -100 27 -105 24 -12 -8 -30 -73 -24 -88 3
-7 45 -31 92 -54 141 -68 213 -158 147 -183 -73 -28 -221 53 -265 146 -27 56
-22 116 15 179 22 38 23 44 9 63 -51 73 -132 -58 -122 -197 6 -81 41 -155 104
-217 45 -46 152 -104 189 -104 31 0 90 -54 114 -103 27 -56 28 -131 2 -174
-40 -65 -176 -117 -293 -111 -61 3 -63 4 -60 28 8 78 3 169 -10 201 -19 45
-72 106 -109 125 -42 21 -127 18 -167 -6 -93 -57 -77 -215 32 -325 28 -28 62
-58 76 -67 24 -15 25 -16 7 -36 -10 -11 -32 -26 -48 -32 -21 -9 -29 -19 -29
-37 0 -13 6 -26 14 -29 17 -6 68 18 116 57 l35 28 65 -16 c88 -21 225 -13 305
17 79 30 158 106 175 170 23 86 -5 198 -71 282 l-32 39 22 23 c26 27 36 80 27
132 -5 25 -23 52 -56 85 l-49 49 39 0 c27 0 47 7 61 21 31 31 22 106 -19 163
l-30 43 39 12 c48 14 84 60 99 124 11 51 2 104 -26 160 -14 27 -14 27 20 27
69 0 135 89 136 182 0 107 -112 291 -145 238 -3 -5 5 -26 18 -47 59 -96 74
-189 36 -237 -29 -37 -74 -35 -135 7 l-49 32 -8 80 c-12 138 -60 240 -147 319
-74 66 -148 77 -198 26z m115 -89 c67 -48 135 -155 157 -246 l7 -30 -37 35
c-58 56 -160 177 -177 212 -14 30 -13 58 3 58 4 0 25 -13 47 -29z m-138 -419
c54 -36 118 -108 147 -165 30 -58 9 -47 -142 69 -86 66 -119 106 -110 130 8
21 38 11 105 -34z m-100 -1103 c32 -30 51 -80 51 -131 0 -78 -21 -84 -100 -27
-61 44 -98 137 -68 167 20 20 91 15 117 -9z"/>
<path d="M1518 3250 c-20 -11 -50 -36 -67 -57 -63 -77 -61 -34 -61 -1051 0
-1039 -6 -959 78 -1032 78 -69 83 -70 644 -70 l498 0 0 -71 c0 -143 -45 -224
-138 -248 -62 -15 -137 -78 -163 -136 -25 -54 -27 -206 -3 -229 14 -14 91 -16
695 -16 800 0 724 -13 717 125 -7 140 -61 214 -188 258 -51 18 -68 30 -94 65
-29 41 -31 50 -34 148 l-4 103 519 3 518 3 55 31 c30 17 68 48 85 68 l30 38 3
941 c2 696 0 953 -9 985 -13 47 -76 125 -120 147 -24 13 -223 15 -1476 15
-1411 -1 -1449 -1 -1485 -20z m2917 -120 c51 -46 55 -71 55 -315 l0 -225 -377
2 -378 3 -6 60 c-12 118 -42 175 -93 175 -10 0 -58 -38 -105 -85 l-87 -84 -37
11 c-20 6 -39 18 -41 27 -2 9 -7 25 -10 37 -5 16 11 38 73 100 88 89 100 113
77 149 -23 35 -86 50 -206 50 -99 0 -110 -2 -171 -32 -53 -27 -79 -33 -128
-33 -145 0 -317 -61 -432 -153 -30 -24 -81 -79 -113 -122 -38 -50 -71 -82 -92
-91 -28 -12 -110 -14 -441 -12 l-408 3 -3 208 c-1 120 2 224 8 246 14 52 45
89 83 100 19 6 587 9 1419 8 l1386 -2 27 -25z m-1115 -218 c0 -4 -22 -30 -50
-57 -36 -36 -50 -57 -50 -77 0 -45 38 -171 57 -189 21 -19 148 -59 189 -59 21
0 44 15 87 58 l59 57 -7 -50 c-14 -107 -77 -195 -170 -240 -47 -23 -63 -26
-144 -24 -77 2 -93 0 -112 -17 -12 -10 -123 -119 -245 -241 -123 -123 -229
-223 -234 -223 -16 0 -160 147 -160 162 0 7 108 121 240 253 l239 239 -1 91
c-2 77 2 98 24 145 28 61 56 95 107 130 50 35 171 64 171 42z m-385 -89 c-28
-66 -45 -144 -45 -201 l0 -67 -215 -215 c-200 -200 -215 -213 -232 -198 -49
43 -51 43 -498 48 l-430 5 0 135 0 135 440 5 c300 3 448 9 466 17 42 19 85 60
134 129 74 103 187 180 308 210 73 17 80 17 72 -3z m1555 -493 l0 -140 -427 0
-428 0 -50 -24 c-58 -27 -78 -48 -129 -132 -47 -80 -148 -174 -229 -214 -88
-43 -206 -63 -300 -50 -39 6 -76 15 -81 20 -7 7 60 80 189 209 l198 199 91 4
c75 4 103 10 158 35 80 37 147 97 195 175 l36 58 388 0 389 0 0 -140z m-2133
-286 c15 -12 43 -48 62 -80 52 -90 171 -202 261 -246 105 -50 171 -68 277 -75
142 -9 279 26 398 102 66 42 171 155 215 230 58 99 39 95 513 95 l407 0 0
-290 0 -290 -615 0 c-602 0 -615 0 -635 -20 -20 -20 -26 -56 -12 -76 21 -32
50 -34 658 -34 l606 0 -4 -60 c-4 -52 -9 -66 -36 -93 l-32 -32 -1408 -3
c-1363 -2 -1408 -1 -1438 17 -38 23 -64 76 -64 130 l0 41 614 0 c605 0 614 0
640 21 31 25 34 61 6 89 -20 20 -33 20 -640 20 l-620 0 0 283 c0 156 3 287 7
291 4 3 188 5 409 4 391 -3 403 -4 431 -24z m915 -1111 c3 -83 9 -119 25 -155
l22 -48 -315 0 c-173 0 -314 2 -314 4 0 2 9 23 20 47 15 35 20 66 20 152 l0
107 269 0 269 0 4 -107z m278 -360 c23 -20 33 -40 37 -70 l6 -43 -592 0 -591
0 0 21 c0 34 28 83 58 101 24 16 75 17 539 18 l513 0 30 -27z"/>
<path d="M2966 1471 c-27 -29 -18 -83 16 -99 64 -30 118 48 68 98 -25 25 -62
26 -84 1z"/>
</g>
</svg>
