<svg id="Capa_1" enable-background="new 0 0 512 512" height="512" viewBox="0 0 512 512" width="512" xmlns="http://www.w3.org/2000/svg"><g><g><path d="m491.071 504.104h-470.142c-7.426 0-13.446-6.02-13.446-13.446v-419.382h497.035v419.382c-.001 7.426-6.021 13.446-13.447 13.446z" fill="#faf7f7"/></g><g><path d="m504.517 71.276h-497.034v-49.934c0-7.426 6.02-13.446 13.446-13.446h470.142c7.426 0 13.446 6.02 13.446 13.446z" fill="#c5d3dd"/></g><g><path d="m504.517 71.276v419.386c0 7.423-6.016 13.438-13.448 13.438h-19.953c7.433 0 13.448-6.016 13.448-13.438v-419.386z" fill="#ede1dd"/></g><g><path d="m504.517 21.343v49.933h-19.953v-49.933c0-7.423-6.016-13.448-13.448-13.448h19.953c7.432 0 13.448 6.026 13.448 13.448z" fill="#b6c4cf"/></g><g><circle cx="256" cy="241.161" fill="#ade194" r="114.605"/></g><g><path d="m370.601 241.157c0 63.301-51.31 114.611-114.601 114.611-14.227 0-27.855-2.594-40.425-7.343 6.505 1.147 13.199 1.746 20.033 1.746 63.291 0 114.601-51.31 114.601-114.611 0-49.065-30.828-90.927-74.176-107.258 53.744 9.478 94.568 56.398 94.568 112.855z" fill="#97da7b"/></g><g><g><path d="m240.011 293.96c-4.831 0-9.481-1.875-12.965-5.242l-31.07-30.029c-7.408-7.161-7.61-18.972-.449-26.38 7.16-7.407 18.969-7.613 26.381-.449l17.345 16.764 50.098-54.261c6.989-7.571 18.793-8.041 26.363-1.052 7.569 6.99 8.041 18.793 1.051 26.363l-63.046 68.285c-3.406 3.69-8.156 5.85-13.176 5.994-.178.005-.355.007-.532.007z" fill="#fee45a"/></g></g><g><g><path d="m316.767 219.678-63.052 68.28c-3.402 3.691-8.151 5.856-13.169 5.996-.18 0-.359.01-.539.01-4.829 0-9.478-1.876-12.96-5.248l-2.065-1.995c3.302-1.038 6.315-2.913 8.72-5.487l68.569-73.398c4.968-5.317 6.475-12.58 4.619-19.075 3.192.658 6.255 2.175 8.819 4.549 7.573 6.993 8.042 18.796 1.058 26.368z" fill="#fed402"/></g></g><g><path d="m504.518 122.97c4.133 0 7.482-3.35 7.482-7.482v-94.146c0-11.54-9.388-20.929-20.928-20.929h-470.144c-11.54 0-20.928 9.389-20.928 20.929v469.316c0 11.54 9.388 20.929 20.928 20.929h470.143c11.54 0 20.928-9.389 20.928-20.929v-340.728c0-4.132-3.35-7.482-7.482-7.482-4.133 0-7.482 3.35-7.482 7.482v340.728c0 3.289-2.675 5.964-5.964 5.964h-470.143c-3.288 0-5.964-2.675-5.964-5.964v-411.9h482.07v36.73c.001 4.132 3.351 7.482 7.484 7.482zm-489.553-59.177v-42.451c0-3.289 2.675-5.964 5.964-5.964h470.143c3.288 0 5.964 2.675 5.964 5.964v42.451z"/><circle cx="385" cy="39.586" r="9.977"/><ellipse cx="422.615" cy="39.586" rx="9.977" ry="9.977" transform="matrix(.987 -.16 .16 .987 -.884 68.206)"/><circle cx="460.229" cy="39.586" r="9.977"/><path d="m256 119.075c-67.319 0-122.087 54.768-122.087 122.087 0 30.822 11.517 60.25 32.428 82.866 2.806 3.034 7.541 3.219 10.574.414 3.034-2.806 3.219-7.54.414-10.574-18.347-19.842-28.451-45.662-28.451-72.706 0-59.067 48.054-107.122 107.122-107.122s107.122 48.055 107.122 107.122c0 59.068-48.054 107.122-107.122 107.122-18.61 0-36.938-4.844-53.002-14.008-3.587-2.047-8.157-.797-10.206 2.792-2.048 3.589-.798 8.159 2.792 10.207 18.318 10.45 39.21 15.974 60.416 15.974 67.319 0 122.087-54.768 122.087-122.087s-54.768-122.087-122.087-122.087z"/><path d="m221.846 294.099c5.051 4.882 11.191 7.344 18.165 7.293 7.16-.052 14.259-2.998 19.206-8.357.004-.005 63.044-68.285 63.044-68.285 4.737-5.13 7.192-11.797 6.915-18.774-.279-6.976-3.256-13.427-8.386-18.164-5.13-4.736-11.791-7.185-18.774-6.913-6.977.278-13.427 3.257-18.164 8.386l-44.904 48.636-11.84-11.444c-10.365-10.014-26.945-9.732-36.962.63-10.015 10.363-9.732 26.943.63 36.961 0 .002 31.042 30.004 31.07 30.031zm-20.939-56.589c2.189-2.265 5.111-3.403 8.037-3.403 2.798 0 5.599 1.041 7.765 3.134l17.345 16.763c1.448 1.4 3.398 2.156 5.413 2.099 2.013-.057 3.917-.924 5.284-2.404l50.097-54.261c2.024-2.193 4.782-3.466 7.764-3.585 2.976-.129 5.833.93 8.026 2.955 2.192 2.025 3.466 4.782 3.584 7.765.119 2.982-.93 5.833-2.956 8.025 0 0-63.045 68.285-63.045 68.286-4.287 4.644-11.487 4.793-15.976.453-.003-.003-31.069-30.028-31.069-30.028-4.43-4.281-4.55-11.369-.269-15.799z"/><path d="m317.051 384.633c-4.133 0-7.482 3.35-7.482 7.482v56.708c0 4.132 3.35 7.482 7.482 7.482 4.133 0 7.483-3.35 7.483-7.482v-13.756l19.84 19.141c1.452 1.401 3.324 2.098 5.194 2.098 1.96 0 3.917-.765 5.386-2.287 2.869-2.974 2.784-7.711-.19-10.58l-24.984-24.105 22.84-20.994c3.043-2.797 3.242-7.53.445-10.572-2.796-3.043-7.529-3.241-10.572-.446l-17.959 16.507v-11.713c0-4.133-3.35-7.483-7.483-7.483z"/><path d="m159.115 456.306c4.133 0 7.482-3.35 7.482-7.482v-56.708c0-4.132-3.35-7.482-7.482-7.482s-7.482 3.35-7.482 7.482v19.899h-24.277v-19.899c0-4.132-3.349-7.482-7.482-7.482s-7.482 3.35-7.482 7.482v56.708c0 4.132 3.35 7.482 7.482 7.482 4.133 0 7.482-3.35 7.482-7.482v-21.844h24.277v21.844c0 4.132 3.349 7.482 7.482 7.482z"/><path d="m215.309 400.116c4.133 0 7.482-3.35 7.482-7.482s-3.35-7.482-7.482-7.482h-23.676c-4.133 0-7.482 3.35-7.482 7.482v56.19c0 4.132 3.349 7.482 7.482 7.482h23.676c4.133 0 7.482-3.35 7.482-7.482s-3.35-7.482-7.482-7.482h-16.193v-13.13h14.449c4.133 0 7.482-3.35 7.482-7.482s-3.35-7.482-7.482-7.482h-14.449v-13.13h16.193z"/><path d="m401.893 400.116c4.133 0 7.482-3.35 7.482-7.482s-3.35-7.482-7.482-7.482h-23.676c-4.133 0-7.482 3.35-7.482 7.482v56.19c0 4.132 3.349 7.482 7.482 7.482h23.676c4.133 0 7.482-3.35 7.482-7.482s-3.35-7.482-7.482-7.482h-16.193v-13.13h14.448c4.133 0 7.482-3.35 7.482-7.482s-3.35-7.482-7.482-7.482h-14.448v-13.13h16.193z"/><path d="m430.542 386.311c-1.987 0-3.892.79-5.296 2.197-1.403 1.406-2.19 3.313-2.186 5.3v.041.002 54.079c0 .485.05.959.138 1.418.127 1.802.895 3.506 2.185 4.786 1.402 1.392 3.296 2.172 5.271 2.172h.028c.472-.002 11.588-.045 16.032-.122 16.873-.295 29.119-14.962 29.119-34.875 0-20.933-11.938-34.997-29.706-34.997h-15.585zm30.326 34.997c0 13.581-7.24 19.787-14.415 19.912-1.928.034-5.243.061-8.342.081-.021-6.468-.047-15.472-.047-20.055 0-3.837-.015-13.237-.026-19.972h8.089c13.678.002 14.741 15.335 14.741 20.034z"/><path d="m72.004 399.598c4.183 0 8.216 1.231 11.664 3.561 3.424 2.313 8.075 1.413 10.389-2.012 2.313-3.424 1.413-8.075-2.012-10.389-5.931-4.007-12.861-6.125-20.041-6.125-19.76 0-35.837 16.076-35.837 35.836s16.077 35.836 35.837 35.836c7.908 0 15.011-2.602 20.537-7.524 1.083-.965 2.113-2.026 3.06-3.156 2.654-3.167 2.239-7.886-.927-10.541-3.167-2.655-7.887-2.24-10.542.927-.48.574-1 1.11-1.543 1.594-2.783 2.479-6.345 3.735-10.585 3.735-11.509 0-20.872-9.363-20.872-20.871s9.363-20.871 20.872-20.871z"/><path d="m271.426 399.598c4.183 0 8.216 1.231 11.663 3.56 3.425 2.313 8.076 1.413 10.389-2.01 2.314-3.424 1.414-8.075-2.01-10.389-5.93-4.007-12.86-6.125-20.042-6.125-19.76 0-35.836 16.076-35.836 35.836s16.076 35.836 35.836 35.836c7.908 0 15.011-2.602 20.537-7.524 1.083-.965 2.113-2.026 3.06-3.156 2.654-3.167 2.239-7.886-.927-10.541-3.168-2.655-7.887-2.24-10.542.927-.48.574-1 1.11-1.543 1.594-2.782 2.479-6.344 3.735-10.584 3.735-11.508 0-20.871-9.363-20.871-20.871-.001-11.509 9.361-20.872 20.87-20.872z"/></g></g></svg>