<svg height="512" viewBox="0 0 60 60" width="512" xmlns="http://www.w3.org/2000/svg"><g id="Page-1" fill="none" fill-rule="evenodd"><g id="016---Deadlines"><path id="Path" d="m19 1h14v2c0 1.1045695-.8954305 2-2 2h-10c-1.1045695 0-2-.8954305-2-2z" fill="#7f8e94" transform="matrix(-1 0 0 -1 52 6)"/><path id="Path" d="m31 1h-3c1.1045695 0 2 .8954305 2 2v2h3v-2c0-1.1045695-.8954305-2-2-2z" fill="#545c60"/><path id="Path" d="m39 7v2c-.0054966 2.2068582-1.7931418 3.9945034-4 4h-18c-2.2068582-.0054966-3.9945034-1.7931418-4-4v-2c.0032948-1.10320187.8967981-1.9967052 2-2h22c1.1032019.0032948 1.9967052.89679813 2 2z" fill="#9e9e9e"/><path id="Path" d="m37 5h-3c1.1032019.0032948 1.9967052.89679813 2 2v2c-.0054966 2.2068582-1.7931418 3.9945034-4 4h3c2.2068582-.0054966 3.9945034-1.7931418 4-4v-2c-.0032948-1.10320187-.8967981-1.9967052-2-2z" fill="#707070"/><path id="Path" d="m51 13v13.04c-6.4111679-4.2897867-14.843039-4.017516-20.9640997.6769446-6.1210606 4.6944605-8.5703591 12.7673484-6.089673 20.0715622 2.4806862 7.3042138 9.3398032 12.2157406 17.0537727 12.2114932h-34c-3.3137085 0-6-2.6862915-6-6v-40c0-3.3137085 2.6862915-6 6-6h6v2c0 2.209139 1.790861 4 4 4h18c2.209139 0 4-1.790861 4-4v-2h6c3.3137085 0 6 2.6862915 6 6z" fill="#91562d"/><path id="Path" d="m14 13h3c-2.209139 0-4-1.790861-4-4v-2h-3v2c0 2.209139 1.790861 4 4 4z" fill="#6d4122"/><path id="Path" d="m45 7h-3c3.3137085 0 6 2.6862915 6 6v11.428c1.048866.4409628 2.0533931.9807287 3 1.612v-13.04c0-3.3137085-2.6862915-6-6-6z" fill="#6d4122"/><path id="Path" d="m47 13v11.03c-8.2642056-2.9175525-17.428542.5410802-21.7044595 8.1912918-4.2759174 7.6502116-2.4204321 17.2681311 4.3944595 22.7787082h-11.69l-13-13v-29c.0032948-1.1032019.89679813-1.9967052 2-2h6.54c.7107625 1.2393657 2.0312931 2.0026782 3.46 2h18c1.4287069.0026782 2.7492375-.7606343 3.46-2h6.54c1.1032019.0032948 1.9967052.8967981 2 2z" fill="#f5f5f5"/><g fill="#cfd8dc"><path id="Path" d="m14 13 3 .000007c-1.4287069.0026712-2.7492375-.7606413-3.46-2.000007h-3c.7107625 1.2393657 2.0312931 2.0026782 3.46 2z"/><path id="Path" d="m45 11h-3c1.1032019.0032948 1.9967052.8967981 2 2v10.253c1.0207852.1708317 2.0246282.430827 3 .777v-11.03c-.0032948-1.1032019-.8967981-1.9967052-2-2z"/><path id="Path" d="m23 41c.003968-9.3910274 7.2303668-17.1992661 16.593-17.929-.525-.046-1.056-.071-1.593-.071-7.6274134.0015713-14.4257424 4.8102916-16.9674727 12.0017479-2.5417304 7.1914564-.2749602 15.2041227 5.6574727 19.9982521h3c-4.2353906-3.4124862-6.6956077-8.5609225-6.69-14z"/></g><path id="Path" d="m59 41c.0002451 7.8407296-5.0749785 14.779631-12.5472997 17.154806-7.4723213 2.3751749-15.6225289-.3598505-20.1494763-6.7617087-4.5269474-6.4018581-4.389087-14.9976269.3408277-21.2510219 4.7299146-6.253395 12.9636375-8.7256519 20.3559483-6.1120754 1.4141571.4953521 2.7585671 1.1709181 4 2.01 5.0013772 3.3343736 8.0038653 8.9490262 8 14.96z" fill="#02a9f4"/><path id="Path" d="m51 26.04c-1.2414329-.8390819-2.5858429-1.5146479-4-2.01-1.9262057-.6845989-3.9557556-1.033005-6-1.03-.475 0-.941.035-1.407.071 1.5037869.1310734 2.9847267.4533382 4.407.959 1.4141571.4953521 2.7585671 1.1709181 4 2.01 6.3778763 4.2567987 9.3551958 12.0893618 7.4153557 19.5078969-1.9398401 7.418535-8.3701224 12.7911457-16.0153557 13.3811031.5266667.0466667 1.06.0703333 1.6.071 7.9245508-.0043633 14.9140364-5.1908476 17.2147692-12.7740627 2.3007328-7.5832152-.6285848-15.7790451-7.2147692-20.1859373z" fill="#0377bc"/><path id="Path" d="m27 41h14v-14c-7.7319865 0-14 6.2680135-14 14z" fill="#f5f5f5"/><path id="Path" d="m18 55v-11c0-1.1045695-.8954305-2-2-2h-11z" fill="#cfd8dc"/><path id="Path" d="m24 9h4c.5522847 0 1-.44771525 1-1s-.4477153-1-1-1h-4c-.5522847 0-1 .44771525-1 1s.4477153 1 1 1z" fill="#000"/><path id="Shape" d="m52 25.537v-12.537c-.0044086-3.86416566-3.1358343-6.99559136-7-7h-5.184c-.4222546-1.19435087-1.5492146-1.99474861-2.816-2h-3v-1c0-1.65685425-1.3431458-3-3-3h-10c-1.6568542 0-3 1.34314575-3 3v1h-3c-1.2667854.00525139-2.3937454.80564913-2.816 2h-5.184c-3.86416566.00440864-6.99559136 3.13583434-7 7v40c.00440864 3.8641657 3.13583434 6.9955914 7 7h34c8.2663883.0082075 15.5875344-5.3344695 18.1010924-13.2094469 2.5135581-7.8749773-.3585412-16.4711639-7.1010924-21.2535531zm-2-12.537v11.273c-.6481938-.3453286-1.3159968-.652518-2-.92v-10.353c0-1.6568542-1.3431458-3-3-3h-5.1c.0668333-.32912893.1003359-.66415415.1-1v-1h5c2.7600532.00330612 4.9966939 2.2399468 5 5zm-8 8h2c.5522847 0 1-.4477153 1-1s-.4477153-1-1-1h-6c-.5522847 0-1 .4477153-1 1s.4477153 1 1 1h2v1.051c-7.3872687.3709829-13.8836247 5.0060019-16.6377561 11.8707034-2.7541315 6.8647016-1.2626746 14.7044464 3.8197561 20.0782966h-8.182v-10c0-1.6568542-1.3431458-3-3-3h-10v-28c0-.5522847.44771525-1 1-1h6.026c.936398 1.2545681 2.4085092 1.9954393 3.974 2h18c1.5654908-.0045607 3.037602-.7454319 3.974-2h6.026c.5522847 0 1 .4477153 1 1v9.69c-1.3064906-.3561503-2.6475751-.5703885-4-.639zm-25 31.586-9.586-9.586h8.586c.5522847 0 1 .4477153 1 1zm3-49.586c0-.55228475.4477153-1 1-1h10c.5522847 0 1 .44771525 1 1v1h-12zm-6 4c0-.55228475.4477153-1 1-1h22c.5522847 0 1 .44771525 1 1v2c0 1.6568542-1.3431458 3-3 3h-18c-1.6568542 0-3-1.3431458-3-3zm-7 51c-2.76005315-.0033061-4.99669388-2.2399468-5-5v-40c.00330612-2.7600532 2.23994685-4.99669388 5-5h5v1c-.0003359.33584585.0331667.67087107.1 1h-5.1c-1.65685425 0-3 1.3431458-3 3v29c.00005664.2651948.10545063.5195073.293.707l13 13c.1874927.1875494.4418052.2929434.707.293h11.381c.9928055.7705098 2.0597129 1.4404673 3.185 2zm34 0c-9.3888407 0-17-7.6111593-17-17s7.6111593-17 17-17 17 7.6111593 17 17c-.010471 9.3845001-7.6154999 16.989529-17 17z" fill="#000" fill-rule="nonzero"/><path id="Shape" d="m41 26c-8.2803876.0093685-14.9906315 6.7196124-15 15 0 .5522847.4477153 1 1 1h14c.5522847 0 1-.4477153 1-1v-14c0-.5522847-.4477153-1-1-1zm-1 14h-11.962c.5014207-6.3872234 5.5747766-11.4605793 11.962-11.962z" fill="#000" fill-rule="nonzero"/></g></g></svg>