<svg id="Capa_1" enable-background="new 0 0 512 512" height="512" viewBox="0 0 512 512" width="512" xmlns="http://www.w3.org/2000/svg"><g><path d="m30.603 116.546v221.202h79.821c2.209 0 4 1.791 4 4v41.502c0 2.209-1.791 4-4 4h-79.821v47.897c0 2.761 2.239 5 5 5h463.897c2.761 0 5-2.239 5-5v-318.601z" fill="#dff6fd"/><g fill="#c8effe"><path d="m30.603 116.546h41.5v221.202h-41.5z"/><path d="m72.103 435.147v-47.897h-41.5v47.897c0 2.761 2.239 5 5 5h41.5c-2.762 0-5-2.238-5-5z"/></g><g><path d="m214.458 207.488c-2.209 0-4-1.791-4-4v-19.84c-8.2-3.58-16.957-6.12-26.12-7.416v52.188c16.104 4.794 28.797 17.487 33.592 33.592h52.187c-2.958-20.92-12.321-39.773-26.037-54.523h-29.622z" fill="#05e39c"/><g><path d="m241.569 262.011-2.756-10.011c-4.794-16.104-17.488-28.797-33.592-33.592v-36.879c-6.66-2.471-13.645-4.274-20.883-5.297v52.188c16.104 4.794 28.797 17.487 33.592 33.592h23.639z" fill="#0ed290"/></g><g><g><path d="m137.206 238.695c5.323-4.656 11.64-8.205 18.595-10.275v-52.187c-21.04 2.974-39.984 12.437-54.777 26.281z" fill="#fd5426"/></g><g><path d="m122 202.513c9.679-9.058 21.143-16.224 33.801-20.94v-5.341c-21.04 2.974-39.984 12.438-54.777 26.281l36.181 36.182c3.809-3.332 8.134-6.083 12.83-8.146z" fill="#ef4424"/></g><path d="m172.014 326.22h-1.944c-27.581 0-49.94-22.359-49.94-49.94 0-4.38.57-8.626 1.63-12.674l-38.714-38.714c-9.609 16.23-14.822 35.371-13.951 55.797.912 21.391 8.558 41.096 20.85 57.058h20.48c2.209 0 4 1.791 4 4v18.809c15.115 10.027 33.041 16.108 52.273 16.737 7.595.249 15.007-.347 22.155-1.69z" fill="#fed402"/><g><path d="m89.944 337.748h20.48c.203 0 .397.031.591.06-12.325-15.974-20.008-35.695-20.921-57.118-.63-14.783 1.94-28.885 7.043-41.706l-14.092-14.092c-9.609 16.23-14.822 35.371-13.951 55.797.912 21.392 8.558 41.097 20.85 57.059z" fill="#fac600"/></g><g><path d="m217.93 290.549c-3.211 10.787-9.971 20.041-18.92 26.421l16.847 49.408c28.752-14.648 49.568-42.639 54.26-75.829z" fill="#01d0fb"/></g><g><g><path d="m221.893 319.592c8.949-6.38 15.708-15.635 18.92-26.421l.96-2.622h-23.843c-3.211 10.787-9.971 20.041-18.92 26.421l16.847 49.408c6.424-3.273 12.448-7.216 17.989-11.73z" fill="#01c0fa"/></g></g></g></g><g><g><path d="m322.293 207.488h-107.835c-2.209 0-4-1.791-4-4v-41.502c0-2.209 1.791-4 4-4h107.835c2.209 0 4 1.791 4 4v41.502c0 2.209-1.791 4-4 4z" fill="#fff"/></g><g><path d="m242 203.488v-41.502c0-2.209 1.791-4 4-4h-31.542c-2.209 0-4 1.791-4 4v41.502c0 2.209 1.791 4 4 4h31.542c-2.209 0-4-1.791-4-4z" fill="#eef5f6"/></g></g><g><g><path d="m110.424 387.25h-98.924c-2.209 0-4-1.791-4-4v-41.502c0-2.209 1.791-4 4-4h98.924c2.209 0 4 1.791 4 4v41.502c0 2.209-1.791 4-4 4z" fill="#7ca1b1"/></g><g><path d="m39 383.25v-41.502c0-2.209 1.791-4 4-4h-31.5c-2.209 0-4 1.791-4 4v41.502c0 2.209 1.791 4 4 4h31.5c-2.209 0-4-1.791-4-4z" fill="#678d98"/></g></g><g><g><circle cx="310.947" cy="265.97" fill="#fd5426" r="12.5"/></g><g><circle cx="419.852" cy="263.99" fill="#fd5426" r="12.5"/></g><g><circle cx="365.399" cy="226.368" fill="#05e39c" r="12.5"/></g><g><circle cx="457.473" cy="226.368" fill="#05e39c" r="12.5"/></g></g><g><path d="m494.5 71.853h-453.897c-5.523 0-10 4.477-10 10v34.693h473.897v-34.693c0-5.523-4.477-10-10-10z" fill="#7ca1b1"/></g><g><path d="m110 71.853h-69.397c-5.523 0-10 4.477-10 10v34.693h79.397z" fill="#678d98"/></g><g><path d="m82.103 71.853h-41.5c-5.523 0-10 4.477-10 10v34.693h41.5v-34.693c0-5.523 4.477-10 10-10z" fill="#537983"/></g><g><path d="m131.902 243.998c1.459 1.459 3.379 2.197 5.305 2.197 1.757 0 3.518-.614 4.936-1.854 4.634-4.053 9.95-6.992 15.798-8.733 3.18-.947 5.36-3.87 5.36-7.188v-52.187c0-2.172-.942-4.238-2.582-5.662s-3.813-2.065-5.968-1.764c-22.106 3.125-42.457 12.887-58.852 28.231-1.484 1.389-2.34 3.32-2.374 5.352s.759 3.99 2.196 5.427zm16.399-58.724v37.844c-3.674 1.502-7.165 3.377-10.452 5.614l-25.816-25.817c10.717-8.505 23.035-14.496 36.268-17.641z"/><path d="m208.758 368.798c.702 2.059 2.263 3.711 4.278 4.529.906.368 1.864.55 2.82.55 1.17 0 2.338-.274 3.405-.817 31.556-16.077 53.343-46.529 58.282-81.461.304-2.151-.339-4.328-1.764-5.968-1.424-1.64-3.49-2.582-5.662-2.582h-52.187c-3.318 0-6.242 2.18-7.188 5.36-2.677 8.993-8.389 16.967-16.085 22.454-2.698 1.924-3.814 5.391-2.745 8.527zm14.465-70.749h37.848c-5.646 23.665-20.4 44.275-41.04 57.331l-12.215-35.824c6.724-5.88 12.023-13.279 15.407-21.507z"/><path d="m322.293 150.486h-107.835c-6.341 0-11.5 5.159-11.5 11.5v10.855c-5.674-1.814-11.541-3.183-17.57-4.035-2.153-.303-4.329.34-5.968 1.764-1.64 1.424-2.582 3.49-2.582 5.662v52.187c0 3.318 2.18 6.241 5.36 7.188 13.772 4.101 24.443 14.771 28.543 28.544.946 3.18 3.87 5.36 7.188 5.36h52.188c2.172 0 4.238-.942 5.662-2.582 1.425-1.64 2.068-3.817 1.764-5.968-2.385-16.866-8.716-32.5-17.991-45.973h62.74c6.341 0 11.5-5.159 11.5-11.5v-41.502c.001-6.341-5.158-11.5-11.499-11.5zm-61.225 104.025h-37.836c-5.828-14.288-17.106-25.566-31.394-31.395v-37.835c3.802.909 7.511 2.06 11.12 3.423v14.784c0 6.341 5.159 11.5 11.5 11.5h26.201c9.729 11.182 16.859 24.677 20.409 39.523zm57.725-54.523h-100.835v-34.502h100.835z"/><path d="m232.282 190.237h15.109c4.142 0 7.5-3.358 7.5-7.5s-3.358-7.5-7.5-7.5h-15.109c-4.142 0-7.5 3.358-7.5 7.5s3.358 7.5 7.5 7.5z"/><path d="m267 190.237h37.469c4.142 0 7.5-3.358 7.5-7.5s-3.358-7.5-7.5-7.5h-37.469c-4.142 0-7.5 3.358-7.5 7.5s3.358 7.5 7.5 7.5z"/><path d="m28.885 369.999h30.115c4.142 0 7.5-3.358 7.5-7.5s-3.358-7.5-7.5-7.5h-30.115c-4.142 0-7.5 3.358-7.5 7.5s3.358 7.5 7.5 7.5z"/><path d="m79.093 369.999h13.947c4.142 0 7.5-3.358 7.5-7.5s-3.358-7.5-7.5-7.5h-13.947c-4.142 0-7.5 3.358-7.5 7.5s3.358 7.5 7.5 7.5z"/><path d="m303.372 300.121h-3.811c-4.142 0-7.5 3.358-7.5 7.5s3.358 7.5 7.5 7.5h3.811c4.142 0 7.5-3.358 7.5-7.5s-3.358-7.5-7.5-7.5z"/><path d="m303.372 326.853h-3.811c-4.142 0-7.5 3.358-7.5 7.5s3.358 7.5 7.5 7.5h3.811c4.142 0 7.5-3.358 7.5-7.5s-3.358-7.5-7.5-7.5z"/><path d="m303.372 353.583h-3.811c-4.142 0-7.5 3.358-7.5 7.5s3.358 7.5 7.5 7.5h3.811c4.142 0 7.5-3.358 7.5-7.5s-3.358-7.5-7.5-7.5z"/><path d="m303.372 380.314h-3.811c-4.142 0-7.5 3.358-7.5 7.5s3.358 7.5 7.5 7.5h3.811c4.142 0 7.5-3.358 7.5-7.5s-3.358-7.5-7.5-7.5z"/><path d="m422.327 300.121h-96.415c-4.142 0-7.5 3.358-7.5 7.5s3.358 7.5 7.5 7.5h96.415c4.142 0 7.5-3.358 7.5-7.5s-3.358-7.5-7.5-7.5z"/><path d="m422.327 326.853h-96.415c-4.142 0-7.5 3.358-7.5 7.5s3.358 7.5 7.5 7.5h96.415c4.142 0 7.5-3.358 7.5-7.5s-3.358-7.5-7.5-7.5z"/><path d="m429.827 361.083c0-4.142-3.358-7.5-7.5-7.5h-96.415c-4.142 0-7.5 3.358-7.5 7.5s3.358 7.5 7.5 7.5h96.415c4.142 0 7.5-3.357 7.5-7.5z"/><path d="m325.912 380.314c-4.142 0-7.5 3.358-7.5 7.5s3.358 7.5 7.5 7.5h53.303c4.142 0 7.5-3.358 7.5-7.5s-3.358-7.5-7.5-7.5z"/><path d="m310.947 245.97c-11.028 0-20 8.972-20 20s8.972 20 20 20 20-8.972 20-20c0-1.864-.275-3.661-.755-5.374l23.446-18.087c3.305 2.415 7.363 3.859 11.761 3.859 3.511 0 6.81-.916 9.681-2.512l24.902 17.912c-.081.73-.131 1.47-.131 2.222 0 11.028 8.972 20 20 20s20-8.972 20-20c0-2.225-.381-4.359-1.054-6.359l12.316-12.316c2.001.674 4.135 1.054 6.359 1.054 11.028 0 20-8.972 20-20s-8.972-20-20-20-20 8.972-20 20c0 3.295.815 6.398 2.232 9.141l-10.712 10.712c-2.743-1.417-5.847-2.232-9.141-2.232-4.786 0-9.182 1.694-12.629 4.509l-22.69-16.321c.56-1.84.867-3.789.867-5.809 0-11.028-8.972-20-20-20s-20 8.972-20 20c0 1.134.117 2.238.299 3.321l-24.674 19.034c-2.963-1.739-6.4-2.754-10.077-2.754zm0 25c-2.757 0-5-2.243-5-5s2.243-5 5-5 5 2.243 5 5-2.243 5-5 5zm146.526-49.601c2.757 0 5 2.243 5 5s-2.243 5-5 5-5-2.243-5-5 2.243-5 5-5zm-37.621 37.621c2.757 0 5 2.243 5 5s-2.243 5-5 5-5-2.243-5-5 2.243-5 5-5zm-54.453-37.621c2.757 0 5 2.243 5 5s-2.243 5-5 5-5-2.243-5-5 2.244-5 5-5z"/><path d="m468.858 165.486c4.142 0 7.5-3.358 7.5-7.5s-3.358-7.5-7.5-7.5h-38c-4.142 0-7.5 3.358-7.5 7.5s3.358 7.5 7.5 7.5z"/><path d="m405 165.486c4.142 0 7.5-3.358 7.5-7.5s-3.358-7.5-7.5-7.5h-38c-4.142 0-7.5 3.358-7.5 7.5s3.358 7.5 7.5 7.5z"/><path d="m114.5 157.986c0-4.142-3.358-7.5-7.5-7.5h-38c-4.142 0-7.5 3.358-7.5 7.5s3.358 7.5 7.5 7.5h38c4.142 0 7.5-3.358 7.5-7.5z"/><path d="m468.858 300.121h-23.761c-4.142 0-7.5 3.358-7.5 7.5s3.358 7.5 7.5 7.5h23.761c4.142 0 7.5-3.358 7.5-7.5s-3.358-7.5-7.5-7.5z"/><path d="m468.858 326.853h-23.761c-4.142 0-7.5 3.358-7.5 7.5s3.358 7.5 7.5 7.5h23.761c4.142 0 7.5-3.358 7.5-7.5s-3.358-7.5-7.5-7.5z"/><path d="m468.858 353.583h-23.761c-4.142 0-7.5 3.358-7.5 7.5s3.358 7.5 7.5 7.5h23.761c4.142 0 7.5-3.358 7.5-7.5s-3.358-7.5-7.5-7.5z"/><path d="m468.858 380.314h-23.761c-4.142 0-7.5 3.358-7.5 7.5s3.358 7.5 7.5 7.5h23.761c4.142 0 7.5-3.358 7.5-7.5s-3.358-7.5-7.5-7.5z"/><path d="m494.5 64.353h-47.5c-4.142 0-7.5 3.358-7.5 7.5s3.358 7.5 7.5 7.5h47.5c1.378 0 2.5 1.122 2.5 2.5v27.193h-379.5v-29.693h294.5c4.142 0 7.5-3.358 7.5-7.5s-3.358-7.5-7.5-7.5h-371.397c-9.649 0-17.5 7.851-17.5 17.5v248.396h-11.603c-6.341 0-11.5 5.159-11.5 11.5v41.502c0 6.341 5.159 11.5 11.5 11.5h11.603v40.397c0 6.893 5.607 12.5 12.5 12.5h114.397c4.142 0 7.5-3.358 7.5-7.5s-3.358-7.5-7.5-7.5h-111.897v-37.898h72.321c6.341 0 11.5-5.159 11.5-11.5v-9.755c13.522 6.752 28.608 10.774 44.528 11.295 1.198.039 2.396.059 3.594.059 6.787 0 13.564-.628 20.192-1.874 2.138-.402 3.996-1.712 5.092-3.591s1.323-4.141.621-6.2l-16.839-49.384c-1.036-3.038-3.889-5.08-7.099-5.08 0 0-.001 0-.002 0h-1.942c-7.419 0-14.731-1.954-21.145-5.65-3.59-2.068-8.175-.836-10.243 2.754-2.068 3.589-.835 8.175 2.754 10.243 7.689 4.431 16.329 7.013 25.176 7.548l12.216 35.827c-3.941.366-7.914.488-11.885.356-16.391-.536-31.757-5.379-45.018-13.402v-14.648c0-6.341-5.159-11.5-11.5-11.5h-16.633c-10.132-14.235-16.414-31.371-17.203-49.877-.636-14.911 2.241-29.585 8.365-42.965l28.601 28.601c-.613 3.385-.923 6.825-.923 10.273 0 6.332 1.04 12.584 3.09 18.581 1.339 3.919 5.604 6.013 9.522 4.671 3.919-1.34 6.011-5.603 4.671-9.522-1.515-4.433-2.283-9.052-2.283-13.729 0-3.638.466-7.263 1.385-10.774.675-2.577-.068-5.319-1.952-7.203l-38.714-38.714c-1.638-1.639-3.947-2.43-6.241-2.138-2.299.29-4.335 1.626-5.516 3.62-10.708 18.086-15.892 38.812-14.991 59.938.761 17.845 5.915 34.601 14.374 49.239h-37.873v-206.203h458.897v308.602h-312c-4.142 0-7.5 3.358-7.5 7.5s3.358 7.5 7.5 7.5h314.5c6.893 0 12.5-5.607 12.5-12.5v-353.295c0-9.65-7.851-17.5-17.5-17.5zm-387.576 280.895v34.502h-91.924v-34.502zm-4.424-236.202h-64.397v-27.193c0-1.378 1.122-2.5 2.5-2.5h61.897z"/></g></g></svg>