<?xml version="1.0" encoding="iso-8859-1"?>
<!-- Generator: Adobe Illustrator 19.0.0, SVG Export Plug-In . SVG Version: 6.00 Build 0)  -->
<svg version="1.1" id="Capa_1" xmlns="http://www.w3.org/2000/svg" xmlns:xlink="http://www.w3.org/1999/xlink" x="0px" y="0px"
	 viewBox="0 0 512.001 512.001" style="enable-background:new 0 0 512.001 512.001;" xml:space="preserve">
<g>
	<path style="fill:#F63D53;" d="M256,339.395c-27.148,0-49.156-22.008-49.156-49.156s22.008-49.158,49.156-49.158
		c27.149,0,49.158,22.01,49.158,49.158S283.149,339.395,256,339.395L256,339.395z M400.123,286.125
		c0-79.268-64.854-144.123-144.123-144.123c-79.268,0-144.122,64.855-144.122,144.123v152.348h288.245L400.123,286.125
		L400.123,286.125z"/>
	<circle style="fill:#F9AF4D;" cx="255.999" cy="290.24" r="49.16"/>
	<path style="fill:#E1E6E9;" d="M400.123,438.473H256H111.878h-2.845c-11.647,0-21.176,9.529-21.176,21.176v42.353h336.286v-42.353
		c0-11.647-9.528-21.176-21.177-21.176H400.123z"/>
</g>
<path d="M207.965,187.392c-2.827-4.744-8.967-6.296-13.71-3.47c-21.286,12.688-38.097,31.88-47.337,54.04
	c-2.126,5.098,0.284,10.953,5.381,13.078c1.258,0.524,2.562,0.774,3.845,0.774c3.916,0,7.633-2.315,9.234-6.154
	c7.6-18.228,21.493-34.052,39.118-44.558C209.239,198.273,210.792,192.136,207.965,187.392z"/>
<path d="M228.648,190.395c0.775,0,1.563-0.09,2.349-0.279l0.336-0.084c5.362-1.311,8.655-6.72,7.348-12.083
	c-1.308-5.363-6.71-8.654-12.071-7.352l-0.294,0.073c-5.37,1.293-8.675,6.693-7.382,12.063
	C220.037,187.316,224.133,190.395,228.648,190.395z"/>
<path d="M410.123,429.31V286.125c0-41.009-16.075-79.668-45.265-108.858c-29.189-29.189-67.85-45.265-108.858-45.265
	s-79.668,16.075-108.857,45.265c-29.19,29.19-45.265,67.85-45.265,108.858V429.31c-13.751,3.244-24.021,15.609-24.021,30.338v42.353
	c0,5.523,4.477,10,10,10h336.286c5.523,0,10-4.477,10-10v-42.353C434.144,444.921,423.874,432.555,410.123,429.31z M121.878,286.125
	c0-73.956,60.168-134.123,134.123-134.123s134.122,60.167,134.122,134.123v142.348H266v-79.94
	c27.872-4.767,49.158-29.084,49.158-58.294c0-32.62-26.538-59.158-59.157-59.158c-32.62,0-59.157,26.538-59.157,59.158
	c0,29.209,21.285,53.525,49.156,58.294v79.94H121.878V286.125z M256.001,329.395c-21.591,0-39.157-17.565-39.157-39.156
	c0-21.592,17.566-39.158,39.157-39.158s39.157,17.566,39.157,39.158C295.158,311.829,277.592,329.395,256.001,329.395z
	 M414.144,492.002H97.857v-32.353c0-6.162,5.014-11.176,11.176-11.176h2.845h288.245h2.844c6.163,0,11.177,5.014,11.177,11.176
	V492.002z"/>
<path d="M256,83.395c5.523,0,10-4.478,10-10V10c0-5.523-4.477-10-10-10c-5.523,0-10,4.477-10,10v63.395
	C246,78.917,250.477,83.395,256,83.395z"/>
<path d="M103.106,143.658c2.643,0,5.28-1.041,7.246-3.106c3.808-4.001,3.65-10.331-0.351-14.138L62.894,81.588
	c-4.001-3.808-10.331-3.651-14.138,0.351c-3.808,4.001-3.65,10.331,0.351,14.138l47.107,44.826
	C98.149,142.744,100.629,143.658,103.106,143.658z"/>
<path d="M463.244,81.938c-3.807-4.001-10.137-4.158-14.138-0.351l-47.107,44.827c-4.001,3.807-4.158,10.137-0.351,14.138
	c1.965,2.065,4.603,3.106,7.246,3.106c2.476,0,4.957-0.914,6.892-2.756l47.108-44.826C466.894,92.27,467.052,85.939,463.244,81.938z
	"/>
<g>
</g>
<g>
</g>
<g>
</g>
<g>
</g>
<g>
</g>
<g>
</g>
<g>
</g>
<g>
</g>
<g>
</g>
<g>
</g>
<g>
</g>
<g>
</g>
<g>
</g>
<g>
</g>
<g>
</g>
</svg>
