<?xml version="1.0" standalone="no"?>
<!DOCTYPE svg PUBLIC "-//W3C//DTD SVG 20010904//EN"
 "http://www.w3.org/TR/2001/REC-SVG-20010904/DTD/svg10.dtd">
<svg version="1.0" xmlns="http://www.w3.org/2000/svg"
 width="900.000000pt" height="520.000000pt" viewBox="0 0 900.000000 520.000000"
 preserveAspectRatio="xMidYMid meet">

<g transform="translate(0.000000,520.000000) scale(0.100000,-0.100000)"
fill="#000000" stroke="none">
<path d="M4085 4903 c-452 -30 -916 -218 -1265 -511 -414 -349 -674 -810 -767
-1362 -25 -150 -25 -512 1 -665 119 -723 559 -1324 1201 -1643 294 -146 571
-216 905 -229 371 -14 712 58 1045 221 246 121 403 233 596 425 396 397 613
890 644 1466 12 210 -24 509 -86 718 l-20 68 -1010 -1008 c-666 -664 -1021
-1012 -1042 -1020 -47 -17 -97 -15 -142 6 -52 24 -1529 1502 -1545 1546 -16
42 -14 118 4 152 25 47 327 341 368 358 51 20 104 19 152 -5 27 -13 220 -199
571 -550 l530 -531 867 868 c477 478 868 870 868 873 0 3 -36 47 -81 98 -148
169 -391 359 -609 475 -349 186 -779 277 -1185 250z" fill="#2191d0"/>
</g>
</svg>
