<svg id="Capa_1" enable-background="new 0 0 512 512" height="512" viewBox="0 0 512 512" width="512" xmlns="http://www.w3.org/2000/svg"><path d="m411 180h-310v-61.389c0-20.22 16.391-36.611 36.611-36.611h236.778c20.22 0 36.611 16.391 36.611 36.611z" fill="#23dbbc"/><path d="m226 296.546h60v100h-60z" fill="#e8916f"/><path d="m148 205.071v-80.214c0-56.254 45.603-101.857 101.856-101.857h12.288c56.253 0 101.856 45.603 101.856 101.856v80.214c0 59.608-48.322 107.93-107.93 107.93h-.141c-59.607 0-107.929-48.322-107.929-107.929z" fill="#ebad88"/><path d="m262.144 23h-12.288c-2.985 0-5.937.136-8.856.387 52.106 4.489 93 48.2 93 101.469v80.214c0 54.541-40.459 99.625-93 106.897 4.881.676 9.863 1.033 14.929 1.033h.141c59.608 0 107.93-48.322 107.93-107.929v-80.214c0-56.254-45.603-101.857-101.856-101.857z" fill="#e8916f"/><path d="m198 354.5h116c50.81 0 92 41.19 92 92v58h-300v-58c0-50.81 41.19-92 92-92z" fill="#23dbbc"/><path d="m314 354.5h-30c50.81 0 92 41.19 92 92v58h30v-58c0-50.81-41.19-92-92-92z" fill="#21ccaf"/><path d="m224.896 336.978-19.433 16.191c-.872.727-.965 2.033-.205 2.876l27.782 30.8c.893.99 2.487.845 3.187-.29l19.773-32.055-28.776-17.69c-.731-.449-1.668-.382-2.328.168z" fill="#fff7e6"/><path d="m287.104 336.978 19.433 16.191c.872.727.965 2.033.205 2.876l-27.782 30.8c-.893.99-2.487.845-3.187-.29l-19.773-32.055 28.776-17.69c.731-.449 1.668-.382 2.328.168z" fill="#fff7e6"/><path d="m378.24 158.33c-14.16 2.56-14.24 28.71-14.24 28.71s-10.33 4.27-14.1-1.87c-3.76-6.14-6.93-45.86-8.37-63.16-1.43-17.31-13.02-40.77-40.37-30.17-27.35 10.62-62.97 10.62-90.32 0-27.35-10.6-38.94 12.86-40.37 30.17-1.44 17.3-4.61 57.02-8.37 63.16-3.77 6.14-14.1 1.87-14.1 1.87s-.08-26.15-14.24-28.71c0 0-12.22-31.58-5.44-66.74 8.29-43.02 32.19-84.09 127.68-84.09s119.39 41.07 127.68 84.09c6.78 35.16-5.44 66.74-5.44 66.74z" fill="#7d4d3d"/><path d="m383.68 91.59c-8.29-43.02-32.19-84.09-127.68-84.09-5.215 0-10.203.13-15 .368 83.041 4.13 104.843 43.051 112.68 83.722 6.78 35.16-5.44 66.74-5.44 66.74-1.164.211-2.224.594-3.206 1.096 1.404 12.178 3.067 22.807 4.866 25.744 3.77 6.14 14.1 1.87 14.1 1.87s.08-26.15 14.24-28.71c0 0 12.22-31.58 5.44-66.74z" fill="#704537"/><path d="m136.82 247.052h-26.459c-12.299 0-22.361-10.062-22.361-22.36v-56.279c0-12.298 10.062-22.361 22.361-22.361h26.459c6.149 0 11.18 5.031 11.18 11.18v78.639c0 6.15-5.031 11.181-11.18 11.181z" fill="#ffd740"/><path d="m136.82 146.052h-26.459c-.711 0-1.414.037-2.109.103 5.478.71 9.748 5.414 9.748 11.077v78.639c0 5.663-4.271 10.367-9.748 11.077.695.066 1.398.103 2.109.103h26.459c6.149 0 11.18-5.031 11.18-11.18v-78.639c0-6.148-5.031-11.18-11.18-11.18z" fill="#ffca28"/><path d="m375.18 247.052h26.459c12.298 0 22.361-10.062 22.361-22.361v-56.279c0-12.298-10.062-22.361-22.361-22.361h-26.459c-6.149 0-11.18 5.031-11.18 11.18v78.639c0 6.151 5.031 11.182 11.18 11.182z" fill="#ffd740"/><path d="m401.639 146.052h-26.459c-.486 0-.962.042-1.432.103 11.319 1.072 20.252 10.671 20.252 22.258v56.279c0 11.587-8.933 21.186-20.252 22.258.47.061.946.103 1.432.103h26.459c12.298 0 22.361-10.062 22.361-22.361v-56.279c0-12.298-10.062-22.361-22.361-22.361z" fill="#ffca28"/><circle cx="256" cy="436" fill="#fff7e6" r="16"/><path d="m278.219 254.889c-1.114-3.988-5.244-6.322-9.241-5.207-7.762 2.168-18.193 2.168-25.955 0-3.989-1.114-8.127 1.217-9.241 5.207s1.217 8.126 5.206 9.241c5.247 1.465 11.13 2.198 17.013 2.198s11.766-.732 17.013-2.198c3.988-1.114 6.319-5.252 5.205-9.241z"/><path d="m352.051 497h-238.551v-50.5c0-16.616 4.816-32.693 13.93-46.494 2.282-3.457 1.33-8.109-2.126-10.392s-8.108-1.33-10.392 2.126c-10.737 16.261-16.412 35.197-16.412 54.76v58c0 4.142 3.357 7.5 7.5 7.5h246.051c4.143 0 7.5-3.358 7.5-7.5s-3.358-7.5-7.5-7.5z"/><path d="m418.5 143.785v-25.175c0-19.28-12.646-36.243-30.67-42.014-4.586-16.134-11.345-28.951-20.849-39.651-2.75-3.096-7.49-3.377-10.588-.626-3.097 2.751-3.378 7.491-.627 10.588 10.163 11.441 16.692 26.091 20.549 46.104 3.314 17.181 1.82 33.476-.522 45.542h-.613c-10.301 0-18.681 8.38-18.681 18.681v23.748c-.108-.006-.221-.01-.312-.025-3.172-8.119-6.744-55.022-7.184-59.564-.987-11.947-6.4-27.44-18.63-35.095-6.222-3.895-16.811-7.308-31.93-1.448-25.782 10.01-59.103 10.01-84.893-.003-15.115-5.859-25.703-2.445-31.925 1.45-12.229 7.655-17.643 23.148-18.63 35.091-.626 6.468-4.03 51.498-7.184 59.569-.091.015-.203.02-.312.026v-23.75c0-10.301-8.38-18.681-18.681-18.681h-.613c-2.342-12.066-3.836-28.361-.522-45.543.519-2.692 1.102-5.387 1.765-8.074.08-.258.144-.521.195-.788 8.983-35.523 32.69-69.147 118.357-69.147 31.985 0 57.732 4.818 76.526 14.321 3.695 1.87 8.208.388 10.077-3.309 1.869-3.696.388-8.208-3.309-10.077-21.206-10.723-48.452-15.935-83.294-15.935-45.659 0-78.799 9.038-101.315 27.629-14.609 12.064-24.465 27.839-30.497 48.961-18.033 5.766-30.688 22.734-30.688 42.02v25.175c-7.844 5.387-13 14.415-13 24.628v56.279c0 16.465 13.396 29.86 29.86 29.86h26.459c4.868 0 9.293-1.887 12.621-4.949 12.686 30.222 37.875 53.945 69.06 64.663v18.278l-17.35 14.456h-3.15c-21.624 0-42.189 6.82-59.472 19.723-3.319 2.478-4.002 7.177-1.523 10.497 2.474 3.313 7.174 4.005 10.496 1.523 14.672-10.953 32.134-16.743 50.499-16.743h2.53l26.941 29.869c4.284 4.747 11.849 3.957 15.14-1.376l13.389-21.706 13.39 21.707c3.314 5.372 10.884 6.089 15.14 1.375l26.94-29.869h2.53c46.594 0 84.5 37.907 84.5 84.5v50.5h-14.356c-4.143 0-7.5 3.358-7.5 7.5s3.357 7.5 7.5 7.5h21.856c4.143 0 7.5-3.358 7.5-7.5v-58c0-54.864-44.636-99.5-99.5-99.5h-3.15l-17.35-14.455v-18.278c14.983-5.15 28.584-13.299 40.078-23.732h31.976c19.821 0 35.946-16.125 35.946-35.946v-.037h.14c16.465 0 29.86-13.396 29.86-29.86v-56.279c0-10.213-5.156-19.242-13-24.628zm-26.586-48.407c7.091 5.377 11.586 13.892 11.586 23.232v20.006c-.616-.038-1.235-.064-1.86-.064h-10.596c2.072-11.896 3.238-27.011.87-43.174zm-283.414 23.232c0-9.34 4.496-17.855 11.586-23.232-2.369 16.164-1.202 31.279.87 43.174h-10.596c-.625 0-1.244.026-1.86.064zm32 117.262c0 1.995-1.686 3.68-3.681 3.68h-26.459c-8.194 0-14.86-6.667-14.86-14.86v-56.279c0-8.194 6.666-14.861 14.86-14.861h26.459c1.995 0 3.681 1.686 3.681 3.681v29.816.084zm93.195 140.502-19.036-21.105 12.003-10 19.011 11.687zm44.61 0-11.978-19.418 19.011-11.687 12.003 10zm.195-44.509-22.5 13.831-22.5-13.831v-13.56c7.258 1.435 14.757 2.195 22.43 2.195h.141c7.673 0 15.171-.76 22.43-2.195v13.56zm-22.43-26.365h-.141c-55.377 0-100.43-45.053-100.43-100.43v-9.099c7.607-.109 11.37-4.237 12.995-6.884 5.378-8.78 7.841-50.257 9.449-66.46.656-7.944 4.099-18.896 11.64-23.616 4.822-3.019 11.061-3.079 18.541-.18 29.083 11.293 66.668 11.292 95.745.001 7.485-2.901 13.725-2.84 18.546.178 7.541 4.72 10.983 15.672 11.64 23.621 1.467 14.779 4.045 57.634 9.453 66.462 1.622 2.641 5.382 6.778 12.991 6.884v9.092c0 27.43-11.058 52.322-28.944 70.465h-62.389c-4.143 0-7.5 3.358-7.5 7.5s3.357 7.5 7.5 7.5h43.589c-15.326 9.483-33.376 14.966-52.685 14.966zm130.43-50.911c0 11.549-9.396 20.946-20.946 20.946h-18.124c6.106-7.898 11.214-16.604 15.13-25.931 3.328 3.061 7.753 4.949 12.621 4.949h11.319zm30-29.897c0 8.194-6.666 14.86-14.86 14.86h-26.459c-1.995 0-3.681-1.686-3.681-3.68v-48.739c0-.028 0-.056 0-.084v-29.816c0-1.995 1.686-3.681 3.681-3.681h26.459c8.194 0 14.86 6.667 14.86 14.861z"/><path d="m279.5 436c0-12.958-10.542-23.5-23.5-23.5s-23.5 10.542-23.5 23.5 10.542 23.5 23.5 23.5 23.5-10.542 23.5-23.5zm-32 0c0-4.687 3.813-8.5 8.5-8.5s8.5 3.813 8.5 8.5-3.813 8.5-8.5 8.5-8.5-3.813-8.5-8.5z"/></svg>