<?xml version="1.0" standalone="no"?>
<!DOCTYPE svg PUBLIC "-//W3C//DTD SVG 20010904//EN"
 "http://www.w3.org/TR/2001/REC-SVG-20010904/DTD/svg10.dtd">
<svg version="1.0" xmlns="http://www.w3.org/2000/svg"
 width="200.000000pt" height="200.000000pt" viewBox="0 0 200.000000 200.000000"
 preserveAspectRatio="xMidYMid meet">

<g transform="translate(0.000000,200.000000) scale(0.100000,-0.100000)"
fill="#000000" stroke="none">
<path d="M900 1794 c-279 -54 -493 -263 -546 -533 -27 -137 1 -318 67 -431 22
-38 18 -22 -15 55 -18 43 -21 70 -21 195 0 134 3 150 27 212 59 149 163 267
295 336 102 53 180 72 293 72 113 0 191 -19 293 -72 136 -71 244 -198 299
-348 20 -57 23 -83 23 -205 0 -134 -2 -143 -33 -220 -17 -44 -50 -105 -73
-135 -64 -85 -65 -90 -7 -27 113 121 168 250 176 413 9 193 -52 356 -183 489
-131 134 -273 195 -460 201 -60 1 -121 0 -135 -2z"/>
<path d="M851 1634 c-71 -19 -175 -74 -233 -124 -64 -55 -131 -160 -163 -254
-50 -148 -31 -326 48 -466 42 -74 149 -177 225 -218 73 -39 69 -50 45 125 -16
121 -16 125 3 150 12 15 59 43 119 70 55 24 103 47 108 52 4 4 13 88 21 186
12 150 17 181 32 192 24 18 38 16 57 -5 14 -15 19 -61 28 -273 6 -143 15 -259
21 -266 21 -26 51 -12 107 49 50 53 60 60 83 55 51 -13 45 -38 -46 -199 -47
-84 -83 -154 -81 -156 2 -2 29 10 59 27 181 104 287 289 287 501 0 110 -16
173 -69 274 -68 131 -211 242 -358 281 -73 19 -221 19 -293 -1z m197 -189 c2
-14 -7 -26 -28 -38 -45 -27 -64 -70 -56 -129 6 -39 4 -50 -9 -55 -47 -17 -66
91 -29 163 22 42 78 87 103 82 9 -2 17 -12 19 -23z m148 -7 c58 -51 79 -126
54 -192 -19 -50 -64 -24 -49 27 13 45 -4 88 -52 131 -34 30 -39 39 -29 51 19
22 35 18 76 -17z"/>
<path d="M134 275 l0 -125 53 0 c52 0 53 1 53 29 0 17 -4 33 -10 36 -5 3 -10
15 -10 26 0 15 7 19 35 19 l35 0 -6 -55 -7 -55 57 0 c55 0 56 0 56 29 0 17 -4
33 -10 36 -5 3 -10 31 -10 61 0 30 5 54 10 54 6 0 10 16 10 35 l0 35 -56 0
-57 0 7 -55 6 -55 -35 0 c-28 0 -35 4 -35 20 0 11 5 20 10 20 6 0 10 16 10 35
l0 35 -53 0 -53 0 0 -125z"/>
<path d="M1070 371 c0 -17 5 -33 10 -36 6 -3 10 -30 10 -60 0 -30 -4 -57 -10
-60 -5 -3 -10 -19 -10 -36 l0 -29 80 0 c73 0 82 2 110 28 51 45 53 150 5 198
-22 22 -33 24 -110 24 l-85 0 0 -29z m134 -44 c13 -10 17 -24 14 -57 -3 -40
-6 -45 -28 -45 -22 0 -25 5 -28 44 -5 68 6 84 42 58z"/>
<path d="M1543 376 c-60 -27 -53 -115 12 -142 19 -8 35 -18 35 -24 0 -15 -21
-23 -33 -11 -6 6 -19 11 -29 11 -29 0 -25 -56 5 -64 41 -11 74 -6 101 15 48
38 28 120 -34 134 -33 7 -37 16 -16 34 10 9 16 8 26 -4 21 -25 40 -18 40 14 0
17 -3 32 -7 34 -23 14 -72 15 -100 3z"/>
<path d="M420 351 c0 -17 5 -33 10 -36 6 -3 10 -26 10 -50 0 -24 -4 -47 -10
-50 -5 -3 -10 -21 -10 -38 l0 -32 75 3 75 4 0 39 c0 36 -2 39 -19 29 -30 -15
-41 -12 -41 11 0 15 5 19 15 15 10 -4 15 1 15 14 0 11 -7 20 -15 20 -9 0 -15
9 -15 21 0 13 5 19 13 16 49 -20 47 -21 47 22 l0 41 -75 0 -75 0 0 -29z"/>
<path d="M600 351 c0 -17 5 -33 10 -36 6 -3 10 -28 10 -56 0 -27 -4 -49 -10
-49 -5 0 -10 -13 -10 -30 l0 -30 70 0 70 0 0 40 0 40 -25 -16 -25 -16 0 61 c0
33 3 61 8 61 4 0 7 14 7 30 0 30 -1 30 -52 30 -52 0 -53 -1 -53 -29z"/>
<path d="M774 263 l0 -118 49 4 49 3 -6 44 c-5 42 -4 44 20 44 54 0 90 40 79
89 -8 37 -41 51 -123 51 l-67 0 -1 -117z m116 47 c0 -16 -7 -30 -15 -34 -12
-4 -15 3 -15 34 0 31 3 38 15 34 8 -4 15 -18 15 -34z"/>
<path d="M1322 349 c1 -17 6 -33 10 -35 12 -7 10 -102 -2 -109 -5 -3 -10 -17
-10 -31 0 -23 2 -24 80 -24 l80 0 0 40 c0 37 -2 40 -19 30 -31 -16 -51 -12
-51 11 0 16 5 20 20 16 15 -4 20 0 20 14 0 12 -7 19 -20 19 -14 0 -20 7 -20
21 0 13 5 19 13 16 56 -21 57 -21 57 22 l0 41 -80 0 -80 0 2 -31z"/>
<path d="M1694 263 l0 -118 44 4 44 3 -4 39 c-5 51 8 50 23 -1 12 -39 14 -40
56 -40 23 0 43 4 43 10 0 5 -12 32 -27 59 l-27 48 27 41 c39 60 36 72 -17 72
-43 0 -44 0 -56 -45 -15 -53 -25 -51 -21 5 l3 40 -44 0 -43 0 -1 -117z"/>
</g>
</svg>
